<svg width="67" height="67" viewBox="0 0 67 67" fill="none" xmlns="http://www.w3.org/2000/svg">
<rect width="67" height="67" rx="16" fill="#27AE60"/>
<path d="M37.9704 39.2515C37.4721 38.8514 37.4717 38.0931 37.9695 37.6925L42.2123 34.2792C42.7099 33.8789 42.7099 33.1211 42.2123 32.7208L37.9695 29.3075C37.4717 28.9069 37.4721 28.1486 37.9704 27.7485L38.2768 27.5025C38.6425 27.209 39.1631 27.209 39.5288 27.5025L46.0286 32.7202C46.5272 33.1205 46.5272 33.8795 46.0286 34.2798L39.5288 39.4975C39.1631 39.791 38.6425 39.791 38.2768 39.4975L37.9704 39.2515Z" fill="white"/>
<path d="M30.0296 27.7485C30.5279 28.1486 30.5283 28.9069 30.0305 29.3075L25.7877 32.7208C25.2901 33.1211 25.2901 33.8789 25.7877 34.2792L30.0305 37.6925C30.5283 38.0931 30.5279 38.8514 30.0296 39.2515L29.7232 39.4975C29.3575 39.791 28.8369 39.791 28.4712 39.4975L21.9714 34.2798C21.4728 33.8795 21.4728 33.1205 21.9714 32.7202L28.4712 27.5025C28.8369 27.209 29.3575 27.209 29.7232 27.5025L30.0296 27.7485Z" fill="white"/>
</svg>
